<svg width="100" height="100" viewBox="0 0 100 100" fill="none" xmlns="http://www.w3.org/2000/svg">
  <circle cx="50" cy="50" r="48" fill="white" stroke="#E2C227" stroke-width="2"/>
  
  <path d="M30 35L35 20L50 30L65 20L70 35H30Z" fill="#B359A3"/>
  <path d="M50 28C52 28 54 26 54 24C54 22 52 20 50 20C48 20 46 22 46 24C46 26 48 28 50 28Z" fill="#F48FB1"/>
  
  <path d="M30 60C30 75 70 75 70 60C70 50 60 45 50 45C40 45 30 50 30 60Z" stroke="#B359A3" stroke-width="3" fill="none"/>
  
  <circle cx="42" cy="58" r="3" fill="#B359A3"/>
  <path d="M55 58H65" stroke="#B359A3" stroke-width="2" stroke-linecap="round"/>
  
  <path d="M40 68C45 72 55 72 60 68" stroke="#ED1C24" stroke-width="2" stroke-linecap="round"/>
  
  <path d="M20 25L22 21L26 20L22 19L20 15L18 19L14 20L18 21L20 25Z" fill="#FFD700"/>
  <path d="M85 45L87 41L91 40L87 39L85 35L83 39L79 40L83 41L85 45Z" fill="#FFD700"/>
</svg>
